# xmcd
#
# Track frame offsets:
#	150
#	9768
#	18135
#	35940
#	49055
#	62838
#	73100
#	82865
#	93608
#	105380
#	113547
#	128264
#	140046
#	152378
#
# Disc length: 2208 seconds
#
# Revision: 0
# Processed by: cddbd v1.5.2PL0 Copyright (c) Steve Scherf et al.
# Submitted via: EasyCDDAExtractor 16.0.6.1
#
DISCID=a4089e0e
DTITLE=Συλλογικός δίσκος - Γράμματα απ' τη Γερμανία-1975, Μ. Θεοδωράκης
DYEAR=2011
DGENRE=Έντεχνη λαϊκή
TTITLE0=Μάνου Αφροδίτη - Σού 'στειλα [στ. Φώντας Λάδης]
TTITLE1=Μάνου Αφροδίτη - Μιά ξανθιά απ' το Βισμπάντεν [στ. Φώντας Λάδης]
TTITLE2=Καλογιάννης Αντώνης - Βγήκ' η ζωή μας στο σφυρί [στ. Φώντας Λάδης]
TTITLE3=Μάνου Αφροδίτη - Κίνησ' ο Μάης για να 'ρθεί [στ. Φώντας Λάδης]
TTITLE4=Συρρής Γιάννης-Μάνου Αφροδίτη - Κρουαζιέρες (Βερολίνο-Άαχεν) [στ. Φώντ
TTITLE4=ας Λάδης]
TTITLE5=Μάνου Αφροδίτη - Γειά σου μάννα, γειά σου Στράτο [στ. Φώντας Λάδης]
TTITLE6=Συρρής Γιάννης - Έστειλα στο κόμμα [στ. Φώντας Λάδης]
TTITLE7=Μάνου Αφροδίτη - Στο καφενείο ''Ελληνικό'' [στ. Φώντας Λάδης]
TTITLE8=Καλογιάννης Αντώνης - Ο Μήτσος [στ. Φώντας Λάδης]
TTITLE9=Μάνου Αφροδίτη - Χτες στη Βιλχελμστράσε [στ. Φώντας Λάδης]
TTITLE10=Μάνου Αφροδίτη-Συρρής Γιάννης - Ένα δάσος κλάρες [στ. Φώντας Λάδης]
TTITLE11=Μάνου Αφροδίτη - Ήρθαν κάτι στρατηγοί [στ. Φώντας Λάδης]
TTITLE12=Συρρής Γιάννης - Προς το Υπουργείο Εργασίας [στ. Φώντας Λάδης]
TTITLE13=Μάνου Αφροδίτη - Έλληνες, Τούρκοι κι Ιταλοί [στ. Φώντας Λάδης]
EXTD=
EXTT0=
EXTT1=
EXTT2=
EXTT3=
EXTT4=
EXTT5=
EXTT6=
EXTT7=
EXTT8=
EXTT9=
EXTT10=
EXTT11=
EXTT12=
EXTT13=
PLAYORDER=
